<svg width="36" height="36" viewBox="0 0 36 36" fill="none" xmlns="http://www.w3.org/2000/svg">
<path d="M1.8 15.75H3.6V29.25H1.8C1.56354 29.2504 1.32935 29.1924 1.11084 29.0794C0.892325 28.9665 0.693783 28.8008 0.526582 28.5918C0.35938 28.3828 0.226804 28.1346 0.136445 27.8615C0.0460864 27.5883 -0.000280023 27.2956 1.27228e-06 27V18C-0.000280023 17.7044 0.0460864 17.4117 0.136445 17.1385C0.226804 16.8654 0.35938 16.6172 0.526582 16.4082C0.693783 16.1992 0.892325 16.0335 1.11084 15.9206C1.32935 15.8076 1.56354 15.7496 1.8 15.75V15.75ZM30.6 12.375V31.5C30.5991 32.6931 30.2195 33.837 29.5445 34.6807C28.8696 35.5243 27.9545 35.9988 27 36H9C8.04551 35.9988 7.13038 35.5243 6.45545 34.6807C5.78052 33.837 5.40094 32.6931 5.4 31.5V12.375C5.39981 11.6362 5.51607 10.9047 5.74215 10.2221C5.96823 9.53956 6.29969 8.91937 6.71759 8.39699C7.13549 7.87461 7.63165 7.46029 8.1777 7.17769C8.72375 6.89509 9.309 6.74976 9.9 6.75H16.2V2.25C16.2 1.65326 16.3896 1.08097 16.7272 0.65901C17.0648 0.237053 17.5226 0 18 0C18.4774 0 18.9352 0.237053 19.2728 0.65901C19.6104 1.08097 19.8 1.65326 19.8 2.25V6.75H26.1C26.691 6.74976 27.2762 6.89509 27.8223 7.17769C28.3684 7.46029 28.8645 7.87461 29.2824 8.39699C29.7003 8.91937 30.0318 9.53956 30.2578 10.2221C30.4839 10.9047 30.6002 11.6362 30.6 12.375V12.375ZM14.85 18C14.85 17.4437 14.718 16.9 14.4708 16.4375C14.2236 15.9749 13.8722 15.6145 13.461 15.4016C13.0499 15.1887 12.5975 15.133 12.161 15.2415C11.7246 15.3501 11.3237 15.6179 11.009 16.0113C10.6943 16.4046 10.48 16.9057 10.3932 17.4513C10.3064 17.9969 10.351 18.5624 10.5213 19.0763C10.6916 19.5902 10.98 20.0295 11.35 20.3385C11.72 20.6476 12.155 20.8125 12.6 20.8125C12.8955 20.8125 13.1881 20.7398 13.4611 20.5985C13.7341 20.4571 13.9821 20.25 14.191 19.9888C14.4 19.7276 14.5657 19.4176 14.6788 19.0763C14.7918 18.7351 14.85 18.3694 14.85 18V18ZM14.4 27H10.8V29.25H14.4V27ZM19.8 27H16.2V29.25H19.8V27ZM25.65 18C25.65 17.4437 25.518 16.9 25.2708 16.4375C25.0236 15.9749 24.6722 15.6145 24.261 15.4016C23.8499 15.1887 23.3975 15.133 22.961 15.2415C22.5246 15.3501 22.1237 15.6179 21.809 16.0113C21.4943 16.4046 21.28 16.9057 21.1932 17.4513C21.1064 17.9969 21.151 18.5624 21.3213 19.0763C21.4916 19.5902 21.78 20.0295 22.15 20.3385C22.52 20.6476 22.955 20.8125 23.4 20.8125C23.6955 20.8125 23.9881 20.7398 24.2611 20.5985C24.5341 20.4571 24.7821 20.25 24.991 19.9888C25.2 19.7276 25.3657 19.4176 25.4788 19.0763C25.5918 18.7351 25.65 18.3694 25.65 18V18ZM25.2 27H21.6V29.25H25.2V27ZM36 18V27C36.0003 27.2956 35.9539 27.5883 35.8636 27.8615C35.7732 28.1346 35.6406 28.3828 35.4734 28.5918C35.3062 28.8008 35.1077 28.9665 34.8892 29.0794C34.6706 29.1924 34.4365 29.2504 34.2 29.25H32.4V15.75H34.2C34.4365 15.7496 34.6706 15.8076 34.8892 15.9206C35.1077 16.0335 35.3062 16.1992 35.4734 16.4082C35.6406 16.6172 35.7732 16.8654 35.8636 17.1385C35.9539 17.4117 36.0003 17.7044 36 18Z" fill="white"/>
</svg>
